<svg xmlns="http://www.w3.org/2000/svg" width="201.392" height="169.936" viewBox="0 0 201.392 169.936">
  <path id="Icon_awesome-tasks" data-name="Icon awesome-tasks" d="M54.915,3.636a4.72,4.72,0,0,0-6.687,0L23.18,28.539l-8.929-8.7a4.72,4.72,0,0,0-6.687,0L1.388,26.021a4.72,4.72,0,0,0,0,6.687L20.108,51.353a5.027,5.027,0,0,0,6.927,0l6.132-6.144,28.4-28.4a4.756,4.756,0,0,0,.035-6.687Zm0,62.616a4.72,4.72,0,0,0-6.687,0L23.18,91.317l-8.929-8.693a4.72,4.72,0,0,0-6.687,0L1.388,88.8a4.72,4.72,0,0,0,0,6.687L20.06,114.166a5.023,5.023,0,0,0,6.923,0l6.176-6.172,28.4-28.407a4.72,4.72,0,0,0,.035-6.648Zm-29.741,68.17a18.882,18.882,0,1,0,0,37.761,18.881,18.881,0,1,0,0-37.761ZM195.1,140.717H81.815a6.294,6.294,0,0,0-6.294,6.294V159.6a6.294,6.294,0,0,0,6.294,6.294H195.1a6.294,6.294,0,0,0,6.294-6.294V147.01A6.294,6.294,0,0,0,195.1,140.717Zm0-125.87H81.815a6.294,6.294,0,0,0-6.294,6.294V33.727a6.294,6.294,0,0,0,6.294,6.294H195.1a6.294,6.294,0,0,0,6.294-6.294V21.14A6.294,6.294,0,0,0,195.1,14.847Zm0,62.935H81.815a6.294,6.294,0,0,0-6.294,6.294V96.662a6.294,6.294,0,0,0,6.294,6.294H195.1a6.294,6.294,0,0,0,6.294-6.294V84.075A6.294,6.294,0,0,0,195.1,77.782Z" transform="translate(0 -2.248)" fill="#f6f7f8"/>
</svg>
